<svg width="60" height="60" viewBox="0 0 60 60" fill="none" xmlns="http://www.w3.org/2000/svg">
    <path
        d="M30.5507 60.01C26.9608 60.01 23.4608 59.3818 20.1103 58.1553C16.8794 56.9586 13.9178 55.2236 11.2853 53.0098C8.65272 50.826 6.43899 48.1935 4.70391 45.2618C2.93891 42.2703 1.71239 39.0095 1.05425 35.5693C0.904675 34.7615 1.44315 33.9538 2.25086 33.8043C3.05857 33.6547 3.86628 34.1931 4.01586 35.0009C4.58425 38.0821 5.69111 41.0138 7.30654 43.7062C8.86213 46.3387 10.8665 48.702 13.2298 50.6764C15.623 52.6808 18.2854 54.2364 21.1872 55.2834C24.1787 56.3903 27.3497 56.9586 30.5806 56.9586C33.7217 56.9586 36.803 56.4202 39.7047 55.3731C42.5168 54.356 45.1493 52.8902 47.5126 50.9756C49.846 49.0909 51.8204 46.8772 53.4358 44.3344C55.0513 41.7617 56.218 38.9497 56.906 36.018C57.0855 35.2103 57.8932 34.7017 58.7009 34.8812C59.5086 35.0607 60.0172 35.8684 59.8377 36.6761C59.0898 39.9668 57.7735 43.078 55.9786 45.9498C54.2136 48.7619 51.9999 51.2448 49.3973 53.309C46.7947 55.4031 43.863 57.0484 40.7219 58.1852C37.4611 59.4416 34.0208 60.01 30.5507 60.01Z"
        fill="currentColor" />
    <path
        d="M58.758 27.3724C58.0101 27.3724 57.3819 26.834 57.2623 26.0861C56.7836 22.8852 55.7665 19.8039 54.2109 16.9619C52.6852 14.1798 50.6809 11.7268 48.2877 9.63271C45.8945 7.53864 43.1423 5.8933 40.1807 4.75652C37.0994 3.58983 33.8686 2.99152 30.548 2.99152C27.3171 2.99152 24.1461 3.55991 21.1247 4.66678C18.2229 5.74373 15.5305 7.32924 13.1373 9.33356C10.774 11.3678 8.79959 13.7311 7.244 16.3936C5.65849 19.1158 4.55163 22.0774 3.98324 25.1587C3.83366 25.9664 3.05587 26.5348 2.21824 26.3852C1.41053 26.2357 0.84214 25.4579 0.991716 24.6202C1.61994 21.18 2.84646 17.8893 4.61146 14.8679C6.34654 11.9063 8.56027 9.27373 11.1928 7.06C13.8553 4.81635 16.8468 3.08127 20.0776 1.88466C23.4281 0.62822 26.9282 0 30.548 0C34.2275 0 37.8473 0.658135 41.2576 1.97441C44.5483 3.23085 47.5996 5.05568 50.2621 7.38907C52.9245 9.72245 55.1383 12.4447 56.8434 15.526C58.5785 18.697 59.7452 22.1074 60.2538 25.6673C60.3734 26.5049 59.8051 27.2528 58.9674 27.3724C58.9076 27.3724 58.8179 27.3724 58.758 27.3724Z"
        fill="currentColor" />
    <path
        d="M41.2007 26.3853C40.6323 25.0092 39.7946 23.7826 38.7476 22.7356C38.6279 22.6159 38.5083 22.4963 38.3886 22.3766H40.4229C41.2605 22.3766 41.9186 21.6886 41.9186 20.8809C41.9186 20.0432 41.2306 19.3851 40.4229 19.3851H20.4694C19.6318 19.3851 18.9736 20.0732 18.9736 20.8809C18.9736 21.7185 19.6617 22.3766 20.4694 22.3766H22.8925C22.7729 22.4963 22.6532 22.6159 22.5335 22.7356C21.4865 23.7826 20.6489 25.0092 20.0805 26.3853C19.4822 27.7913 19.183 29.317 19.183 30.8426C19.183 32.3982 19.4822 33.894 20.0805 35.3C20.6489 36.6761 21.4865 37.9026 22.5335 38.9497C23.5806 39.9967 24.8071 40.8343 26.1832 41.4027C27.5892 42.001 29.1149 42.3002 30.6406 42.3002C32.1962 42.3002 33.6919 42.001 35.0979 41.4027C36.474 40.8343 37.7006 39.9967 38.7476 38.9497C39.7946 37.9026 40.6323 36.6761 41.2007 35.3C41.799 33.894 42.0981 32.3683 42.0981 30.8426C42.128 29.317 41.799 27.8212 41.2007 26.3853ZM36.6236 36.8556C35.0381 38.4411 32.8842 39.3386 30.6406 39.3386C28.367 39.3386 26.243 38.471 24.6575 36.8556C23.072 35.2701 22.1746 33.1162 22.1746 30.8726C22.1746 28.599 23.0421 26.475 24.6575 24.8895C26.243 23.304 28.3969 22.4065 30.6406 22.4065C32.9141 22.4065 35.0381 23.2741 36.6236 24.8895C38.2091 26.475 39.1066 28.6289 39.1066 30.8726C39.1066 33.1162 38.2091 35.2701 36.6236 36.8556Z"
        fill="currentColor" />
    <style>
        :root{color: #48799D}
        @media (prefers-color-scheme:dark){:root{color: #6cc1ff}}
    </style>
</svg>