<svg width="61" height="53" viewBox="0 0 61 53" fill="none" xmlns="http://www.w3.org/2000/svg">
<path d="M60.4604 0.505417L58.9021 11.1134C55.7163 10.8414 53.1885 11.3854 51.3186 12.7454C49.4487 14.0374 48.1674 15.9074 47.4749 18.3554C46.8516 20.7354 46.7477 23.4554 47.1632 26.5154H60.4604V52.7294H34.8011V25.4954C34.8011 16.5874 36.948 9.85541 41.2419 5.29942C45.5357 0.675411 51.9419 -0.922585 60.4604 0.505417ZM25.6593 0.505417L24.101 11.1134C20.9153 10.8414 18.3874 11.3854 16.5175 12.7454C14.6476 14.0374 13.3664 15.9074 12.6738 18.3554C12.0505 20.7354 11.9466 23.4554 12.3622 26.5154H25.6593V52.7294H0V25.4954C0 16.5874 2.14693 9.85541 6.44079 5.29942C10.7347 0.675411 17.1408 -0.922585 25.6593 0.505417Z" fill="#0B3336"/>
</svg>
